# xmcd CD database file
#
# Track frame offsets:
#	150
#	13290
#	30883
#	45781
#	57910
#	69845
#	82864
#	104738
#	110369
#	123067
#	134271
#	147674
#
# Disc length: 2214 seconds
#
# Revision: 1
# Processed by: cddbd v1.5.2PL0 Copyright (c) Steve Scherf et al.
# Submitted via: CDex 1.70beta2
#
DISCID=9508a40c
DTITLE=Various Artist - Divas of Jazz [CD2 of 2)
DYEAR=2005
DGENRE=Jazz
TTITLE0=Dinah Washington - I Wanna Be Loved
TTITLE1=Sarah Vaughan - When Sunny Gets Blue
TTITLE2=Billie Holiday - Don't Explain
TTITLE3=Pearl Bailey - Little Sheba
TTITLE4=Ella Fitzgerald - Sing Song Swing
TTITLE5=Lena Horne - Love Me or Leave Me
TTITLE6=Carmen McRae - Rock Rhythm
TTITLE7=Billie Holiday - You're Driving Me Crazy
TTITLE8=Sarah Vaughan - My Ideal
TTITLE9=Ella Fitzgerald - A Tisket, A Tasket
TTITLE10=Lena Horne - The Lady Is a Tramp
TTITLE11=Sarah Vaughan - In a Sentimental Mood
EXTD=YEAR: 2005
EXTT0=
EXTT1=
EXTT2=
EXTT3=
EXTT4=
EXTT5=
EXTT6=
EXTT7=
EXTT8=
EXTT9=
EXTT10=
EXTT11=
PLAYORDER=
